{
    "asset" : {
        "generator" : "Khronos glTF Blender I/O v1.4.40",
        "version" : "2.0"
    },
    "scene" : 0,
    "scenes" : [
        {
            "name" : "Scene",
            "nodes" : [
                0,
                1,
                2,
                3,
                4,
                5
            ]
        }
    ],
    "nodes" : [
        {
            "mesh" : 0,
            "name" : "Cube"
        },
        {
            "mesh" : 1,
            "name" : "Cube.001"
        },
        {
            "mesh" : 2,
            "name" : "Cube.002"
        },
        {
            "mesh" : 3,
            "name" : "Cube.003",
            "translation" : [
                -23.005130767822266,
                0,
                16.574981689453125
            ]
        },
        {
            "mesh" : 4,
            "name" : "Sphere",
            "scale" : [
                6.468421459197998,
                6.468421459197998,
                6.468421459197998
            ],
            "translation" : [
                -10.26842212677002,
                1.1181095838546753,
                0
            ]
        },
        {
            "mesh" : 5,
            "name" : "Cube.004",
            "rotation" : [
                0,
                0.887010931968689,
                0,
                -0.4617484509944916
            ],
            "translation" : [
                9.064212799072266,
                0,
                0
            ]
        }
    ],
    "materials" : [
        {
            "doubleSided" : true,
            "name" : "Green",
            "pbrMetallicRoughness" : {
                "baseColorTexture" : {
                    "index" : 0,
                    "texCoord" : 0
                },
                "metallicFactor" : 0,
                "roughnessFactor" : 0.5
            }
        },
        {
            "doubleSided" : true,
            "name" : "Gray",
            "pbrMetallicRoughness" : {
                "baseColorTexture" : {
                    "index" : 1,
                    "texCoord" : 0
                },
                "metallicFactor" : 0,
                "roughnessFactor" : 0.5
            }
        },
        {
            "doubleSided" : true,
            "name" : "Purple",
            "pbrMetallicRoughness" : {
                "baseColorTexture" : {
                    "index" : 2,
                    "texCoord" : 0
                },
                "metallicFactor" : 0,
                "roughnessFactor" : 0.4000000059604645
            }
        },
        {
            "doubleSided" : true,
            "name" : "Orange",
            "pbrMetallicRoughness" : {
                "baseColorTexture" : {
                    "index" : 3,
                    "texCoord" : 0
                },
                "metallicFactor" : 0,
                "roughnessFactor" : 0.5
            }
        }
    ],
    "meshes" : [
        {
            "name" : "Cube.001",
            "primitives" : [
                {
                    "attributes" : {
                        "POSITION" : 0,
                        "NORMAL" : 1,
                        "TEXCOORD_0" : 2
                    },
                    "indices" : 3
                }
            ]
        },
        {
            "name" : "Cube.002",
            "primitives" : [
                {
                    "attributes" : {
                        "POSITION" : 4,
                        "NORMAL" : 5,
                        "TEXCOORD_0" : 6
                    },
                    "indices" : 7,
                    "material" : 0
                },
                {
                    "attributes" : {
                        "POSITION" : 8,
                        "NORMAL" : 9,
                        "TEXCOORD_0" : 10
                    },
                    "indices" : 11,
                    "material" : 1
                }
            ]
        },
        {
            "name" : "Cube.003",
            "primitives" : [
                {
                    "attributes" : {
                        "POSITION" : 12,
                        "NORMAL" : 13,
                        "TEXCOORD_0" : 14
                    },
                    "indices" : 3,
                    "material" : 2
                }
            ]
        },
        {
            "name" : "Cube.004",
            "primitives" : [
                {
                    "attributes" : {
                        "POSITION" : 15,
                        "NORMAL" : 16,
                        "TEXCOORD_0" : 17
                    },
                    "indices" : 3,
                    "material" : 3
                }
            ]
        },
        {
            "name" : "Sphere",
            "primitives" : [
                {
                    "attributes" : {
                        "POSITION" : 18,
                        "NORMAL" : 19,
                        "TEXCOORD_0" : 20
                    },
                    "indices" : 21,
                    "material" : 1
                }
            ]
        },
        {
            "name" : "Cube.005",
            "primitives" : [
                {
                    "attributes" : {
                        "POSITION" : 22,
                        "NORMAL" : 23,
                        "TEXCOORD_0" : 24
                    },
                    "indices" : 3,
                    "material" : 2
                }
            ]
        }
    ],
    "textures" : [
        {
            "sampler" : 0,
            "source" : 0
        },
        {
            "sampler" : 0,
            "source" : 1
        },
        {
            "sampler" : 0,
            "source" : 2
        },
        {
            "sampler" : 0,
            "source" : 3
        }
    ],
    "images" : [
        {
            "bufferView" : 8,
            "mimeType" : "image/png",
            "name" : "texture_green"
        },
        {
            "bufferView" : 13,
            "mimeType" : "image/png",
            "name" : "texture_Dark"
        },
        {
            "bufferView" : 17,
            "mimeType" : "image/png",
            "name" : "texture_purple"
        },
        {
            "bufferView" : 21,
            "mimeType" : "image/png",
            "name" : "texture_Orange"
        }
    ],
    "accessors" : [
        {
            "bufferView" : 0,
            "componentType" : 5126,
            "count" : 24,
            "max" : [
                0.25,
                1.6999999284744263,
                0.25
            ],
            "min" : [
                -0.25,
                0,
                -0.25
            ],
            "type" : "VEC3"
        },
        {
            "bufferView" : 1,
            "componentType" : 5126,
            "count" : 24,
            "type" : "VEC3"
        },
        {
            "bufferView" : 2,
            "componentType" : 5126,
            "count" : 24,
            "type" : "VEC2"
        },
        {
            "bufferView" : 3,
            "componentType" : 5123,
            "count" : 36,
            "type" : "SCALAR"
        },
        {
            "bufferView" : 4,
            "componentType" : 5126,
            "count" : 60,
            "max" : [
                25,
                21.06000328063965,
                25
            ],
            "min" : [
                -25,
                -0.06000000238418579,
                -25
            ],
            "type" : "VEC3"
        },
        {
            "bufferView" : 5,
            "componentType" : 5126,
            "count" : 60,
            "type" : "VEC3"
        },
        {
            "bufferView" : 6,
            "componentType" : 5126,
            "count" : 60,
            "type" : "VEC2"
        },
        {
            "bufferView" : 7,
            "componentType" : 5123,
            "count" : 102,
            "type" : "SCALAR"
        },
        {
            "bufferView" : 9,
            "componentType" : 5126,
            "count" : 68,
            "max" : [
                24.299610137939453,
                36.16782760620117,
                24.299610137939453
            ],
            "min" : [
                -24.299610137939453,
                0.06000000238418579,
                -24.299610137939453
            ],
            "type" : "VEC3"
        },
        {
            "bufferView" : 10,
            "componentType" : 5126,
            "count" : 68,
            "type" : "VEC3"
        },
        {
            "bufferView" : 11,
            "componentType" : 5126,
            "count" : 68,
            "type" : "VEC2"
        },
        {
            "bufferView" : 12,
            "componentType" : 5123,
            "count" : 102,
            "type" : "SCALAR"
        },
        {
            "bufferView" : 14,
            "componentType" : 5126,
            "count" : 24,
            "max" : [
                2.539794921875,
                1.440882921218872,
                1
            ],
            "min" : [
                -1,
                0,
                -7.956440448760986
            ],
            "type" : "VEC3"
        },
        {
            "bufferView" : 15,
            "componentType" : 5126,
            "count" : 24,
            "type" : "VEC3"
        },
        {
            "bufferView" : 16,
            "componentType" : 5126,
            "count" : 24,
            "type" : "VEC2"
        },
        {
            "bufferView" : 18,
            "componentType" : 5126,
            "count" : 24,
            "max" : [
                2.539794921875,
                7.499606132507324,
                1
            ],
            "min" : [
                -1,
                0,
                -39.56383514404297
            ],
            "type" : "VEC3"
        },
        {
            "bufferView" : 19,
            "componentType" : 5126,
            "count" : 24,
            "type" : "VEC3"
        },
        {
            "bufferView" : 20,
            "componentType" : 5126,
            "count" : 24,
            "type" : "VEC2"
        },
        {
            "bufferView" : 22,
            "componentType" : 5126,
            "count" : 329,
            "max" : [
                1.000000238418579,
                1,
                1.0000003576278687
            ],
            "min" : [
                -0.9999998211860657,
                -0.19509020447731018,
                -1
            ],
            "type" : "VEC3"
        },
        {
            "bufferView" : 23,
            "componentType" : 5126,
            "count" : 329,
            "type" : "VEC3"
        },
        {
            "bufferView" : 24,
            "componentType" : 5126,
            "count" : 329,
            "type" : "VEC2"
        },
        {
            "bufferView" : 25,
            "componentType" : 5123,
            "count" : 1632,
            "type" : "SCALAR"
        },
        {
            "bufferView" : 26,
            "componentType" : 5126,
            "count" : 24,
            "max" : [
                2.539794921875,
                12.775074005126953,
                1
            ],
            "min" : [
                -1,
                0,
                -7.956440448760986
            ],
            "type" : "VEC3"
        },
        {
            "bufferView" : 27,
            "componentType" : 5126,
            "count" : 24,
            "type" : "VEC3"
        },
        {
            "bufferView" : 28,
            "componentType" : 5126,
            "count" : 24,
            "type" : "VEC2"
        }
    ],
    "bufferViews" : [
        {
            "buffer" : 0,
            "byteLength" : 288,
            "byteOffset" : 0
        },
        {
            "buffer" : 0,
            "byteLength" : 288,
            "byteOffset" : 288
        },
        {
            "buffer" : 0,
            "byteLength" : 192,
            "byteOffset" : 576
        },
        {
            "buffer" : 0,
            "byteLength" : 72,
            "byteOffset" : 768
        },
        {
            "buffer" : 0,
            "byteLength" : 720,
            "byteOffset" : 840
        },
        {
            "buffer" : 0,
            "byteLength" : 720,
            "byteOffset" : 1560
        },
        {
            "buffer" : 0,
            "byteLength" : 480,
            "byteOffset" : 2280
        },
        {
            "buffer" : 0,
            "byteLength" : 204,
            "byteOffset" : 2760
        },
        {
            "buffer" : 0,
            "byteLength" : 2743,
            "byteOffset" : 2964
        },
        {
            "buffer" : 0,
            "byteLength" : 816,
            "byteOffset" : 5708
        },
        {
            "buffer" : 0,
            "byteLength" : 816,
            "byteOffset" : 6524
        },
        {
            "buffer" : 0,
            "byteLength" : 544,
            "byteOffset" : 7340
        },
        {
            "buffer" : 0,
            "byteLength" : 204,
            "byteOffset" : 7884
        },
        {
            "buffer" : 0,
            "byteLength" : 2743,
            "byteOffset" : 8088
        },
        {
            "buffer" : 0,
            "byteLength" : 288,
            "byteOffset" : 10832
        },
        {
            "buffer" : 0,
            "byteLength" : 288,
            "byteOffset" : 11120
        },
        {
            "buffer" : 0,
            "byteLength" : 192,
            "byteOffset" : 11408
        },
        {
            "buffer" : 0,
            "byteLength" : 2739,
            "byteOffset" : 11600
        },
        {
            "buffer" : 0,
            "byteLength" : 288,
            "byteOffset" : 14340
        },
        {
            "buffer" : 0,
            "byteLength" : 288,
            "byteOffset" : 14628
        },
        {
            "buffer" : 0,
            "byteLength" : 192,
            "byteOffset" : 14916
        },
        {
            "buffer" : 0,
            "byteLength" : 637,
            "byteOffset" : 15108
        },
        {
            "buffer" : 0,
            "byteLength" : 3948,
            "byteOffset" : 15748
        },
        {
            "buffer" : 0,
            "byteLength" : 3948,
            "byteOffset" : 19696
        },
        {
            "buffer" : 0,
            "byteLength" : 2632,
            "byteOffset" : 23644
        },
        {
            "buffer" : 0,
            "byteLength" : 3264,
            "byteOffset" : 26276
        },
        {
            "buffer" : 0,
            "byteLength" : 288,
            "byteOffset" : 29540
        },
        {
            "buffer" : 0,
            "byteLength" : 288,
            "byteOffset" : 29828
        },
        {
            "buffer" : 0,
            "byteLength" : 192,
            "byteOffset" : 30116
        }
    ],
    "samplers" : [
        {
            "magFilter" : 9729,
            "minFilter" : 9986
        }
    ],
    "buffers" : [
        {
            "byteLength" : 30308,
            "uri" : "data:application/octet-stream;base64,"
        }
    ]
}
